<svg xmlns="http://www.w3.org/2000/svg" xmlns:svg="http://www.w3.org/2000/svg" xmlns:xlink="http://www.w3.org/1999/xlink" id="svg5" width="128mm" height="128mm" version="1.1" viewBox="0 0 128 128"><defs id="defs2"><linearGradient id="linearGradient13230"><stop style="stop-color:#ffbf2a;stop-opacity:1" id="stop13226" offset="0"/><stop style="stop-color:#f70;stop-opacity:1" id="stop13228" offset="1"/></linearGradient><linearGradient id="linearGradient11862"><stop style="stop-color:#ffd42a;stop-opacity:1" id="stop11858" offset="0"/><stop style="stop-color:#ffad00;stop-opacity:1" id="stop11860" offset="1"/></linearGradient><linearGradient id="linearGradient11864" x1="-60.616" x2="-83.148" y1="12.013" y2="58.833" gradientTransform="matrix(1.6308249,0,0,1.3080563,174.89743,5.7205566)" gradientUnits="userSpaceOnUse" xlink:href="#linearGradient11862"/><linearGradient id="linearGradient13232" x1="84.719" x2="44.911" y1="58.18" y2="136.52" gradientUnits="userSpaceOnUse" xlink:href="#linearGradient13230"/></defs><g id="layer4"><rect style="fill:#fff;fill-opacity:1;stroke:#000;stroke-width:1.434;stroke-linejoin:miter;stroke-miterlimit:4;stroke-dasharray:none;stroke-dashoffset:0;stroke-opacity:1" id="rect14238" width="125.666" height="125.666" x="1.167" y="1.167"/></g><g id="layer2"><g id="g955" transform="translate(-1.9981101,-0.74984295)"><path style="fill:#553800;fill-opacity:0;stroke:#ffa000;stroke-width:5.809;stroke-miterlimit:4;stroke-dasharray:none;stroke-opacity:1" id="path6686-2" d="M 103.31749,29.786687 A 48.595345,48.595341 0 0 1 113.20792,86.118256 48.595345,48.595341 0 0 1 62.644773,112.84717 48.595345,48.595341 0 0 1 21.666122,72.949591"/><path style="fill:none;stroke:#ffb200;stroke-width:5.04471;stroke-miterlimit:4;stroke-dasharray:none;stroke-opacity:1" id="path6686-4" d="M 26.612657,83.725808 A 58.454838,19.202742 0 0 1 9.7529434,109.7621 58.454838,19.202742 0 0 1 -70.104125,105.24909 58.454838,19.202742 0 0 1 -59.50899,78.858766" transform="matrix(0.8041949,-0.59436566,0.87916337,0.47652048,0,0)"/><path style="fill:none;fill-opacity:0;stroke:#ffa000;stroke-width:5.809;stroke-miterlimit:4;stroke-dasharray:none;stroke-opacity:1" id="path6686" d="M 22.290808,76.004643 A 48.595345,48.595341 0 0 1 45.966026,22.265986 48.595345,48.595341 0 0 1 104.10014,30.559618"/></g><g id="g21748" transform="translate(-1.0583333)"><path id="rect3685-4" d="M 94.970092,64 51.75356,120.70859 67.175098,64 Z" style="fill:url(#linearGradient13232);fill-opacity:1;stroke:none;stroke-width:2.123;stroke-linejoin:round;stroke-miterlimit:4;stroke-dasharray:none;stroke-dashoffset:0;stroke-opacity:1"/><path id="rect3685-4-4" d="M 39.380031,64 82.596635,7.2914066 67.175098,64 Z" style="fill:url(#linearGradient11864);fill-opacity:1;stroke:none;stroke-width:2.123;stroke-linejoin:round;stroke-miterlimit:4;stroke-dasharray:none;stroke-dashoffset:0;stroke-opacity:1"/></g></g></svg>